<svg width="182" height="52" viewBox="0 0 182 52" fill="none" xmlns="http://www.w3.org/2000/svg">
    <path d="M85.2592 0L42.7498 51.4287L40.0679 36.2811H0L14.0938 19.2301L19.9575 12.1316L29.986 0H85.2592Z"
        fill="#F2BE10" />
    <path
        d="M47.2843 25.3123L50.3181 21.6892H33.0376L38.9062 14.5907H68.1665L45.1097 42.4866L43.3331 32.4471L43.3622 32.4108H8.22852L14.0971 25.3123L17.0896 21.6892L22.9558 14.5907L31.8168 3.86914H77.0276L71.1615 10.9677H36.0253L24.1693 25.3123H47.2843Z"
        fill="#231F20" />
    <path
        d="M95.0276 24.0555L93.6903 24.1958H97.7216V21.0516H96.3649V18.4057H101.714V25.168L99.639 26.8393H91.0352V14.5867L93.1103 12.9155H101.714V17.5495H97.7216V15.6993L99.0589 15.559H95.0276V24.0531V24.0555ZM102.413 26.8393L104.748 12.9155H111.075L113.41 26.8393H109.697L109.277 24.3336L110.595 24.1933H106.541L106.102 26.8393H102.408H102.413ZM107.903 16.1177L107.005 21.5474H108.82L107.903 16.1177ZM119.74 21.4579V26.8393H115.747C115.747 25.8041 115.75 24.0313 115.757 21.5184C115.764 19.0055 115.767 17.0658 115.767 15.6993L117.084 15.559H112.412V12.9131H123.091V15.559H119.737V21.4579H119.74ZM127.625 21.0298V26.8393H123.652V12.9155H127.645V18.4057H130.339V12.9155H134.331V26.8393H130.319C130.319 26.1887 130.322 25.2382 130.329 23.9853C130.336 22.7325 130.339 21.7941 130.339 21.1701L131.656 21.0298H127.625ZM139.721 26.8393H135.729V12.9155H144.333L146.408 14.5867V18.7056L144.93 19.8786L146.408 21.0516V26.8393H142.415V21.0516H139.721V26.8393ZM142.415 18.4057V15.7017L143.753 15.5614H139.721V18.4057H142.415ZM158.325 15.2228V25.168L156.25 26.8393H147.646V14.5867L149.721 12.9155H158.325V15.2228ZM154.332 24.1933V15.6993L155.669 15.559H151.638V24.0531L150.301 24.1933H154.332ZM159.662 12.9155H165.511L167.686 22.1448L168.125 24.1933L167.926 22.5028V12.9155H171.918V26.8393H165.492L163.734 17.61V17.5906L163.276 15.5614L163.654 18.6838V26.8393H159.662V12.9155ZM177.309 21.0516V24.1958H182V26.8417H173.316V12.9179H182V15.5638H175.972L177.309 15.7041V18.4081H181.699V21.054H177.309V21.0516Z"
        fill="#F2BE10" />
    <path
        d="M105.223 34.3271C105.534 34.3271 105.797 34.4348 106.016 34.6535C106.236 34.8722 106.344 35.1346 106.344 35.4441H106.064C106.064 35.212 105.983 35.0168 105.817 34.852C105.652 34.6871 105.456 34.6064 105.223 34.6064H103.261C103.029 34.6064 102.833 34.6871 102.667 34.852C102.502 35.0168 102.421 35.212 102.421 35.4441V37.3988C102.421 37.6309 102.502 37.826 102.667 37.9909C102.833 38.1558 103.029 38.2365 103.261 38.2365H105.223C105.456 38.2365 105.652 38.1558 105.817 37.9909C105.983 37.826 106.064 37.6309 106.064 37.3988V36.5611H104.102V36.2818H106.344V37.3988C106.344 37.7083 106.236 37.9707 106.016 38.1894C105.797 38.4081 105.534 38.5157 105.223 38.5157H103.261C102.951 38.5157 102.688 38.4081 102.468 38.1894C102.249 37.9707 102.141 37.7083 102.141 37.3988V35.4441C102.141 35.1346 102.249 34.8722 102.468 34.6535C102.688 34.4348 102.951 34.3271 103.261 34.3271H105.223Z"
        fill="#F2BE10" stroke="#F2BE10" stroke-width="0.721946" />
    <path
        d="M121.799 37.3989H118.889L118.298 38.5159H117.984L120.344 34.0615L122.704 38.5159H122.39L121.799 37.3989ZM119.038 37.1197H121.651L120.344 34.657L119.038 37.1197Z"
        fill="#F2BE10" stroke="#F2BE10" stroke-width="0.721946" />
    <path
        d="M134.768 34.7909V38.5119H134.488V34.1113L136.592 36.2208L138.695 34.1113V38.5119H138.415V34.7909L136.592 36.6178L134.768 34.7909Z"
        fill="#F2BE10" stroke="#F2BE10" stroke-width="0.721946" />
    <path
        d="M154.934 34.3271V34.6064H151.011V36.2818H154.093V36.5611H151.011V38.2365H154.934V38.5157H150.73V34.3271H154.934Z"
        fill="#F2BE10" stroke="#F2BE10" stroke-width="0.721946" />
    <path
        d="M169.774 34.3271C170.084 34.3271 170.348 34.4348 170.567 34.6535C170.787 34.8722 170.895 35.1346 170.895 35.4441H170.614C170.614 35.212 170.533 35.0168 170.368 34.852C170.203 34.6871 170.007 34.6064 169.774 34.6064H167.812C167.579 34.6064 167.384 34.6871 167.218 34.852C167.053 35.0168 166.972 35.212 166.972 35.4441C166.972 35.6762 167.053 35.8714 167.218 36.0362C167.384 36.2011 167.579 36.2818 167.812 36.2818H169.774C170.084 36.2818 170.348 36.3895 170.567 36.6082C170.787 36.8268 170.895 37.0893 170.895 37.3988C170.895 37.7083 170.787 37.9707 170.567 38.1894C170.348 38.4081 170.084 38.5157 169.774 38.5157H167.812C167.502 38.5157 167.238 38.4081 167.019 38.1894C166.799 37.9707 166.691 37.7083 166.691 37.3988H166.972C166.972 37.6309 167.053 37.826 167.218 37.9909C167.384 38.1558 167.579 38.2365 167.812 38.2365H169.774C170.007 38.2365 170.203 38.1558 170.368 37.9909C170.533 37.826 170.614 37.6309 170.614 37.3988C170.614 37.1666 170.533 36.9715 170.368 36.8067C170.203 36.6418 170.007 36.5611 169.774 36.5611H167.812C167.502 36.5611 167.238 36.4534 167.019 36.2347C166.799 36.016 166.691 35.7536 166.691 35.4441C166.691 35.1346 166.799 34.8722 167.019 34.6535C167.238 34.4348 167.502 34.3271 167.812 34.3271H169.774Z"
        fill="#F2BE10" stroke="#F2BE10" stroke-width="0.721946" />
</svg>